<svg width="50" height="50" viewBox="0 0 50 50" fill="none" xmlns="http://www.w3.org/2000/svg">
<path d="M28.0928 40.378C28.22 40.2083 28.4321 40.2295 28.6017 40.2083C29.2803 40.1023 29.7892 39.8266 30.0225 39.0844C30.3194 38.109 30.383 38.109 31.1888 38.7663C32.3339 39.6994 33.5426 40.59 34.8997 41.2262C35.3451 41.4382 35.7904 41.5867 36.2569 41.6503C36.7658 41.7139 36.9355 41.6079 37.0627 41.1202C37.296 40.2083 37.1263 39.2965 36.9355 38.4058C36.5114 36.4337 35.7904 34.5464 34.9634 32.7227C34.7937 32.3198 34.4968 32.3198 34.1576 32.3834C33.0337 32.5531 31.9098 32.6591 30.7859 32.7227C30.2557 32.7651 30.1921 32.7015 30.3194 32.1926C30.4678 31.514 30.4678 30.8142 30.9131 30.178C31.316 29.6055 31.7401 29.2874 32.4399 29.2662C33.1185 29.245 33.1397 29.1814 32.7792 28.5452C32.6308 28.2907 32.6095 28.0999 32.8216 27.8454C33.4366 27.1032 33.9243 26.2762 34.2636 25.3644C34.306 25.2583 34.306 25.0887 34.4544 25.0887C34.6029 25.0887 34.6241 25.2371 34.6877 25.3432C35.2602 26.3186 35.8116 27.2941 36.3629 28.2907C36.5114 28.5664 36.6598 28.6937 37.0203 28.6088C39.2469 28.1635 41.431 27.6334 43.4668 26.6155C44.0181 26.3398 44.5483 26.0217 44.9936 25.5764C45.4601 25.0887 45.4601 24.9191 45.0148 24.4525C44.3998 23.8164 43.6152 23.4347 42.8306 23.0954C40.4768 22.0987 38.017 21.5474 35.4935 21.1445C35.0694 21.0808 34.921 20.9112 34.8997 20.4871C34.8785 19.8933 34.7301 19.3208 34.5392 18.7694C34.4332 18.4937 34.4756 18.2393 34.6029 17.9636C35.5571 15.9491 36.4053 13.8921 36.8719 11.6867C37.0627 10.7749 37.2536 9.84185 37.0415 8.8876C36.9143 8.35746 36.7446 8.27263 36.2145 8.35746C35.2178 8.5059 34.3696 8.99363 33.5426 9.50256C32.1854 10.3296 30.9767 11.3262 29.7892 12.3865C29.5347 12.6198 29.3227 12.641 29.0046 12.4926C28.1352 12.0896 27.2021 11.8352 26.2479 11.7292C26.1419 11.7079 26.0146 11.7292 25.9722 11.6019C25.9298 11.4959 26.0146 11.4323 26.0994 11.3687C28.4957 9.05724 30.9555 6.85186 34.0727 5.53711C34.9422 5.17661 35.8752 4.92215 36.8294 5.02817C38.8228 5.26144 40.0951 6.6398 40.3284 8.69675C40.5616 10.6901 40.0951 12.5774 39.5438 14.4435C39.2045 15.5674 38.7804 16.6701 38.2926 17.7515C38.0806 18.2605 38.0806 18.2605 38.6107 18.3665C40.9433 18.8754 43.2335 19.5328 45.3541 20.6779C45.969 21.0172 46.5416 21.3989 47.0717 21.8654C49.1923 23.7315 49.1711 26.361 46.9869 28.1847C45.5237 29.4146 43.7849 30.1144 42.0036 30.7082C40.9433 31.0687 39.8618 31.3444 38.7804 31.5776C38.0806 31.7261 38.0806 31.7261 38.3775 32.4046C39.1621 34.2495 39.8406 36.158 40.2011 38.1514C40.392 39.2753 40.498 40.378 40.3072 41.5231C39.883 44.0041 37.9109 45.3401 35.4299 44.8311C34.1576 44.5555 33.0125 44.0041 31.9098 43.3255C30.7011 42.5833 29.5559 41.7139 28.4745 40.7809C28.3472 40.6748 28.1776 40.5688 28.0928 40.378Z" fill="#003A5B"/>
<path d="M12.8426 9.79929C12.9274 11.4321 13.3939 13.0013 13.9453 14.5281C14.3694 15.7157 14.8783 16.8608 15.4084 17.9847C15.5145 18.2179 15.5357 18.4512 15.4508 18.7057C15.26 19.3206 15.1116 19.9568 15.0691 20.6142C15.0479 20.9747 14.8359 21.0595 14.539 21.1231C12.3124 21.4624 10.1071 21.9501 7.96529 22.7559C7.13828 23.074 6.31126 23.3921 5.61148 23.9222C4.31794 24.8977 4.29674 25.1097 5.63269 26.1064C6.14162 26.4881 6.73537 26.7638 7.30792 26.9971C9.1528 27.7605 11.0613 28.2482 13.0122 28.6299C13.3303 28.6935 13.4575 28.5875 13.5848 28.333C14.1361 27.3363 14.7087 26.3397 15.2812 25.343C15.3448 25.237 15.366 25.0885 15.5145 25.0885C15.6629 25.0885 15.6629 25.2582 15.7053 25.3642C16.0446 26.2124 16.4899 27.0183 17.0837 27.718C17.3381 28.0361 17.3805 28.2694 17.1685 28.6299C16.8292 29.1812 16.8504 29.2024 17.4866 29.2661C18.5681 29.3509 18.8649 29.4569 19.0982 30.7504C19.2042 31.2594 19.2678 31.7895 19.3739 32.2985C19.4375 32.6377 19.3315 32.765 18.9922 32.7226C17.9743 32.6165 16.9564 32.5105 15.9598 32.3833C15.2812 32.2985 15.2388 32.2985 14.9631 32.9134C14.0301 35.034 13.1819 37.197 12.885 39.5296C12.8214 40.0597 12.8002 40.6111 12.9486 41.1412C13.0758 41.6077 13.2455 41.7138 13.7332 41.6501C15.1328 41.3957 16.2779 40.6323 17.423 39.8477C18.1015 39.3811 18.7377 38.851 19.3527 38.3421C19.8192 37.9604 19.8192 37.9604 20.0312 38.5117C20.0949 38.6601 20.1585 38.7874 20.2009 38.9358C20.3917 39.7416 20.9219 40.1233 21.7065 40.2294C21.7913 40.2294 21.8973 40.2294 21.9397 40.3354C22.0034 40.4626 21.8761 40.5262 21.7913 40.5899C20.0312 42.0955 18.2288 43.5162 16.0658 44.4069C15.1116 44.8098 14.1361 45.1067 13.0758 44.9582C11.1461 44.7037 9.87379 43.283 9.64053 41.3109C9.42848 39.3175 9.87379 37.4302 10.4251 35.5641C10.7644 34.4402 11.1885 33.3375 11.6763 32.256C11.9095 31.7471 11.8883 31.7471 11.337 31.6199C9.00437 31.1109 6.71417 30.4536 4.61482 29.2873C3.74539 28.7995 2.93958 28.2482 2.30342 27.4636C0.96747 25.7671 1.03109 23.8374 2.53668 22.2682C3.53334 21.2079 4.80567 20.5505 6.12041 19.978C7.81685 19.257 9.59812 18.7481 11.4006 18.3876C11.8247 18.3027 11.9095 18.1543 11.7187 17.7514C10.8068 15.6732 10.0646 13.5527 9.72535 11.3049C9.57691 10.3506 9.5345 9.39638 9.70415 8.44213C10.1495 5.96107 12.0792 4.64632 14.5602 5.15525C16.1506 5.49454 17.5502 6.25795 18.8649 7.14858C20.6462 8.3573 22.279 9.77808 23.8058 11.2837C23.8906 11.3685 24.0603 11.4533 24.0179 11.623C23.9543 11.7714 23.7846 11.729 23.6574 11.7502C22.7243 11.8774 21.8337 12.1107 20.9855 12.5136C20.6674 12.662 20.4553 12.6196 20.2009 12.4076C19.0346 11.3473 17.8047 10.3294 16.4687 9.50241C15.6629 9.01468 14.8359 8.54815 13.8816 8.37851C13.2243 8.27248 13.097 8.3573 12.9274 8.99347C12.8638 9.24794 12.8638 9.52361 12.8426 9.79929Z" fill="#003A5B"/>
<path d="M24.8633 32.532C24.3544 32.532 23.8454 32.532 23.3365 32.532C22.2762 32.5108 21.6401 31.917 21.4704 30.8991C21.322 29.8813 21.1311 28.8846 20.9827 27.8879C20.9403 27.5911 20.7494 27.4214 20.5586 27.2518C19.2226 26.0006 18.438 24.495 18.3744 22.6502C18.2684 20.0207 19.3287 17.9637 21.5764 16.6278C25.7327 14.1679 30.8221 16.5429 31.5855 21.3142C31.9672 23.774 31.1189 25.8522 29.2104 27.4638C28.9984 27.6335 28.8287 27.8243 28.7863 28.1C28.6379 29.0542 28.447 30.0085 28.2986 30.984C28.1502 31.9382 27.5352 32.532 26.5385 32.5532C25.9872 32.532 25.4146 32.532 24.8633 32.532Z" fill="#FEB400"/>
<path d="M25.1378 34.1016C25.7528 34.1228 26.495 34.0591 27.2371 34.1652C27.9581 34.2712 28.0005 34.3984 27.7673 35.077C27.534 35.7768 27.0675 36.0313 26.3677 36.0101C25.3711 35.9889 24.3956 36.0101 23.3989 35.9889C22.6992 35.9889 22.0418 35.2891 22.063 34.6105C22.063 34.3772 22.2538 34.2924 22.4235 34.25C22.7628 34.144 23.1233 34.1228 23.4838 34.1016C23.9927 34.1016 24.5016 34.1016 25.1378 34.1016Z" fill="#003A5B"/>
<path d="M25.0177 37.0485C25.5902 37.0485 26.1628 37.0273 26.7353 37.0485C27.4987 37.0909 27.5835 37.303 27.3715 38.0239C27.1806 38.7025 26.7353 38.9358 26.1204 38.9358C25.3782 38.9358 24.636 38.957 23.8938 38.9358C23.0456 38.9146 22.5578 38.4056 22.4942 37.5786C22.473 37.3454 22.6214 37.2393 22.8123 37.1757C23.1304 37.0485 23.4485 37.0485 23.7665 37.0697C24.1906 37.0485 24.5936 37.0485 25.0177 37.0485Z" fill="#003A5B"/>
</svg>
